<svg width="350" height="350" viewBox="0 0 350 350" fill="none" xmlns="http://www.w3.org/2000/svg">
<circle cx="175" cy="175" r="174.5" fill="#001216" stroke="black"/>
<path d="M192.7 69L265.3 256.2C268.1 263 271.1 267.9 274.3 270.9C277.5 273.7 280.4 275.2 283 275.4V281.4C275.8 281 267.4 280.8 257.8 280.8C248.2 280.6 238.4 280.5 228.4 280.5C218.2 280.5 208.6 280.6 199.6 280.8C190.6 280.8 183.4 281 178 281.4V275.4C188.2 275 194.6 273.3 197.2 270.3C200 267.1 199.4 260.4 195.4 250.2L147.4 117.3L153.4 106.8L112 214.5C107 227.5 103.9 238 102.7 246C101.7 253.8 102.2 259.8 104.2 264C106.2 268.2 109.4 271.1 113.8 272.7C118.2 274.3 123.4 275.2 129.4 275.4V281.4C122 281 115.3 280.8 109.3 280.8C103.5 280.6 97.1 280.5 90.1 280.5C86.3 280.5 82.2 280.6 77.8 280.8C73.6 280.8 70 281 67 281.4V275.4C71.6 274.6 76.1 271.7 80.5 266.7C85.1 261.5 89.8 252.7 94.6 240.3L161.2 69C166 69.4 171.2 69.6 176.8 69.6C182.6 69.6 187.9 69.4 192.7 69ZM203.2 195V201H113.8L116.8 195H203.2Z" fill="#F7F9F8"/>
</svg>
