<svg width="393" height="400" viewBox="0 0 393 400" fill="none" xmlns="http://www.w3.org/2000/svg">
<path fill-rule="evenodd" clip-rule="evenodd" d="M383.574 220.36C377.968 220.863 372.362 221.366 366.758 221.869C339.909 223.747 313.073 227.666 286.431 230.018C285.767 229.031 284.47 229.192 283.681 229.879C281.023 229.666 278.043 227.807 275.635 229.741C275.557 229.731 275.479 229.719 275.401 229.712C271.112 222.183 268.148 214.151 265.272 206.109C263.436 201.165 260.966 196.379 256.401 193.058C248.611 188.111 230.762 178.076 221.614 178.498C221.462 177.001 220.7 175.456 219.446 174.458C222.209 170.148 211.16 167.335 210.381 167.835C210.881 153.435 203.478 140.929 187.154 138.062C172.532 135.275 151.732 134.806 143.868 148.79C143.002 148.7 134.165 148.659 133.31 148.746C131.982 147.206 117.382 161.803 123.365 166.887C69.8689 188.539 39.4504 185.956 24.6434 246.83C22.6416 252.547 22.4959 258.805 20.3821 264.396C12.8619 280.464 6.76224 297.573 5.2443 315.055C1.57776 315.915 1.15614 321.831 5.40299 322.686C7.02517 323.012 8.38164 323.459 9.56455 324.307C8.63992 338.634 12.4269 371.363 14.8129 371.261C19.6784 385.43 41.3803 389.427 56.7446 384.449C54.096 389.009 56.7446 391.874 56.7446 394.312C112.029 396.225 172.477 395.122 227.746 397.748C234.816 397.655 242.253 399.335 249.226 398.368C253.478 397.435 253.485 391.317 249.173 390.561L268.02 386.815C267.598 386.67 275.789 381.686 281.98 372.37C287.743 361.949 283.82 349.37 286.431 338.036C306.824 336.51 327.552 335.857 347.721 332.698C350.471 340.227 362.376 331.223 366.159 327.601C366.154 327.596 366.15 327.591 366.144 327.584C367.977 327.125 369.444 325.555 369.495 323.695C370.779 322.018 371.048 319.65 369.816 318.029C375.461 288.226 384.066 257.797 387.177 227.715C388.275 227.493 389.312 227.052 390.189 226.373L390.118 226.306C391.605 224.79 391.895 222.171 389.414 220.881C387.415 219.841 385.744 220.164 383.574 220.36Z" fill="white"/>
<path fill-rule="evenodd" clip-rule="evenodd" d="M144.887 145.542C146.553 141.711 152.184 143.2 151.555 147.225C151.18 149.635 149.736 152.18 148.441 154.293C147.386 156.013 146.182 157.69 144.55 158.979C147.456 161.46 150.47 163.848 153.562 166.117C156.937 168.593 160.484 170.874 164.152 172.971C167.367 174.81 170.728 176.44 173.759 178.539C176.578 180.488 179.144 182.835 180.45 185.898C181.842 189.159 181.238 192.528 180.212 195.787L180.095 196.156C179.049 199.385 177.235 203.277 179.749 206.32C181.028 207.87 182.888 208.966 184.493 210.205C185.922 211.304 187.262 212.502 188.49 213.787C191.17 216.59 193.349 219.743 194.724 223.257L194.847 223.577C196.025 226.687 196.887 230.497 195.295 233.551C194.838 234.427 193.364 234.141 193.108 233.29C192.528 231.359 192.56 229.337 192.075 227.377C191.569 225.341 190.729 223.409 189.631 221.578C187.509 218.04 184.633 215.018 181.236 212.463L180.22 211.705C177.57 209.717 175.136 207.606 174.597 204.312C174.023 200.789 175.565 197.433 176.557 194.098C177.248 191.773 177.473 189.545 176.726 187.446C175.814 188.809 174.569 190.102 173.584 191.256C171.622 193.556 169.643 195.842 167.668 198.131C165.642 200.478 163.667 202.863 161.787 205.31C160.945 206.405 160.112 207.506 159.284 208.607C158.659 209.435 157.79 210.262 157.11 211.107C157.275 211.559 157.262 212.081 156.963 212.45C153.358 216.908 148.227 207.608 146.89 205.257C144.166 200.471 142.136 195.388 139.403 190.602C136.571 185.643 133.345 180.816 129.752 176.287C127.578 173.549 125.14 170.976 123.151 168.149C118.464 172.038 112.298 174.645 106.634 177.007C100.411 179.604 93.9455 181.725 87.5649 183.977L85.6802 184.649C74.6863 188.573 63.4238 192.886 54.2859 199.86C43.5479 208.055 37.1952 219.476 32.4659 231.303C27.0217 244.918 22.5178 258.9 18.3193 272.876C16.1707 280.024 14.1321 287.206 12.2156 294.412C10.5267 300.76 9.12676 307.171 7.17178 313.454C11.1367 313.325 15.6588 314.729 19.044 315.135C34.4716 316.982 49.6915 319.927 64.2572 325.028C66.0563 325.658 66.5767 327.302 66.185 328.634C67.2226 328.366 68.2593 328.096 69.2969 327.829C68.1603 326.235 68.7027 323.386 68.792 321.619L68.7976 321.498C68.8894 319.144 69.1685 316.787 69.3495 314.438C69.6942 309.96 70.1427 305.514 70.7394 301.059L70.8916 299.946C71.5676 295.101 72.0672 290.228 72.8049 285.391L72.8921 284.839C72.5385 283.6 72.1265 282.378 71.6943 281.161C70.5426 277.92 68.9169 274.867 67.4923 271.728C67.3243 271.358 67.8997 271.147 68.1686 271.368C70.5815 273.353 72.498 275.874 74.0377 278.508C74.0642 278.384 74.0878 278.26 74.1157 278.136L74.2915 277.344C74.7246 275.415 75.2516 273.384 76.5454 271.818C76.6831 271.654 76.9555 271.618 77.086 271.818C78.3241 273.735 78.4627 276.164 78.6532 278.345C78.8685 280.812 78.8956 283.312 78.8576 285.787C78.7834 290.622 78.4109 295.473 78.1141 300.299C77.8229 305.045 77.2512 309.729 76.5142 314.426L76.3741 315.308C76.014 317.543 75.7191 319.807 75.244 322.028L75.1098 322.633C74.8558 323.734 74.6995 325.286 74.1939 326.576C87.203 323.257 100.232 320.012 113.286 316.826C122.72 314.521 132.165 312.252 141.605 309.968C142.103 309.146 142.724 308.379 143.498 307.694C146.048 305.434 149.428 304.424 152.529 306.165C152.78 306.307 152.802 306.668 152.529 306.805C151.935 307.101 151.34 307.407 150.755 307.725L156.424 306.319C160.661 305.269 164.949 303.955 169.284 303.223C177.273 299.616 185.865 297.006 194.279 294.426L195.269 294.118C199.578 292.776 204.034 291.27 208.486 290.525C211.745 289.98 215.569 290.637 216.879 293.693C218.539 294.693 220.1 295.869 221.607 297.024C222.696 297.861 223.74 298.749 224.801 299.613L224.996 299.771C225.864 300.459 226.551 300.921 226.765 302.018C226.875 302.584 226.481 303.35 225.717 303.275C223.381 303.046 221.482 300.568 219.897 299.089C218.673 297.946 217.439 296.763 216.322 295.505C215.672 295.83 214.778 295.772 214.363 295.053C212.214 291.329 206.325 293.909 203.066 294.793L198.4 296.057C196.066 296.69 193.732 297.327 191.404 297.973C185.003 299.752 178.635 301.742 172.176 303.376C172.753 303.957 172.674 304.99 171.575 305.384C166.521 307.2 160.975 308.138 155.721 309.383C152.407 310.17 149.092 310.961 145.778 311.758C145.212 312.599 144.803 313.553 144.63 314.661C143.998 318.738 145.217 323.442 146.405 327.385L146.585 327.975C147.56 331.145 148.997 335.031 151.987 337.033C152.717 337.521 153.646 337.861 154.582 337.938C160.434 335.181 166.285 332.426 172.14 329.674C173.225 329.165 174.229 329.855 174.472 330.675C176.537 330.366 178.596 329.877 180.472 329.295C183.624 328.315 186.086 326.447 189.04 325.155C194.76 322.655 200.598 325.726 205.717 328.06L206.899 328.59C209.194 329.61 213.971 331.568 215.071 328.78C216.138 326.083 212.769 323.201 210.593 321.987C207.999 320.539 204.98 319.766 202.049 319.12C200.375 318.751 198.682 318.451 196.978 318.231C195.044 317.983 193.048 318.021 191.187 317.446C190.263 317.162 190.12 315.818 191.187 315.595C194.052 314.999 197.471 315.65 200.461 316.314L202.023 316.668C205.035 317.344 208.077 318.192 210.822 319.542C212.816 320.522 214.923 322.013 216.298 323.838C217.493 322.824 218.979 322.858 220.527 323.233L221.369 323.447C222.757 323.799 223.881 324.042 225.232 323.797C225.412 322.898 225.596 321.999 225.791 321.1C227.716 312.259 229.827 303.452 232.155 294.691C236.173 279.58 240.822 264.634 246.064 249.843L246.59 248.365C247.798 244.981 248.771 241.295 250.72 238.188C252.564 235.248 255.516 233.555 259.025 232.659C263.005 231.641 267.189 231.109 271.251 230.423C272.156 230.27 273.065 230.123 273.972 229.972C273.206 228.708 272.634 227.27 272.119 226.167L272.028 225.977C270.921 223.667 269.926 221.316 268.966 218.952L268.249 217.176C266.515 212.897 264.725 208.689 262.288 204.688C259.721 200.476 256.317 197.033 252.073 194.185C243.423 188.374 232.995 185.41 224.604 179.2C224.26 178.947 224.7 178.512 225.05 178.671C230.715 181.277 236.832 183.048 242.725 185.169L243.888 185.588C248.546 187.278 253.277 189.117 257.308 191.853C261.803 194.904 265.344 198.692 268.005 203.196C270.627 207.637 272.305 212.606 274.154 217.35L274.65 218.614C275.395 220.509 276.166 222.397 277.049 224.241C277.751 225.706 279.059 227.377 279.654 229.049C281.282 228.791 282.908 228.533 284.537 228.285C319.816 222.894 355.49 219.727 391.243 218.801C392.64 218.765 393.365 219.986 393.158 221.102C389.726 239.666 386.677 258.293 383.332 276.871C381.872 284.98 380.382 293.081 378.858 301.18C378.085 305.283 377.193 309.37 376.461 313.479C375.872 316.797 375.443 320.142 374.43 323.383C373.519 326.289 372.124 329.091 369.833 331.309C367.363 333.699 363.916 334.856 360.445 335.402C351.636 336.79 342.6 337.356 333.717 338.281L286.434 343.203C287.126 348.949 287.178 354.607 286.86 360.419L286.68 363.594C286.531 366.147 286.355 368.703 285.955 371.23C285.452 374.398 283.866 377.082 281.533 379.449C279.39 381.623 276.787 383.479 274.254 385.255C271.625 387.1 268.91 388.882 265.818 390.024L265.419 390.17C262.706 391.139 257.62 392.638 253.915 392.09C254.398 394.31 255.336 396.698 254.504 398.895C254.119 399.917 252.66 400.425 251.767 399.558C249.998 397.837 249.858 395.564 249.44 393.319C249.004 390.982 248.628 388.639 248.294 386.288C247.647 381.743 247.143 377.158 246.991 372.574C246.833 367.868 246.894 363.156 247.171 358.455C247.313 356.04 247.491 353.628 247.825 351.228C247.968 350.207 248.113 349.182 248.281 348.162C248.342 347.79 248.409 347.419 248.481 347.049L244.237 347.487C237.73 348.152 231.219 348.752 224.665 348.845C223.89 348.857 223.292 348.533 222.902 348.062C222.487 348.682 221.763 349.126 220.726 349.122C211.574 349.09 203.051 346.352 194.728 343.125C190.531 341.498 186.402 339.736 182.199 338.123C178.276 336.617 174.084 335.543 170.256 333.847L160.198 338.674C160.125 338.911 160.031 339.136 159.93 339.324C159.274 340.546 157.983 341.211 156.665 341.711C155.4 342.19 154.088 342.339 152.812 342.219C145.184 345.876 137.554 349.53 129.919 353.176L122.284 356.818C107.068 364.066 91.9142 371.432 76.6038 378.511L75.4768 379.031C70.1885 381.456 64.5101 383.916 58.6414 385.751C58.537 387.111 58.603 388.433 58.7273 389.871L58.7574 390.183C58.9322 391.885 59.3074 394.014 57.8169 395.224C57.0417 395.855 55.6566 395.857 55.1295 394.908C54.1727 393.187 55.0317 390.474 55.3348 388.605C55.4424 387.938 55.5734 387.255 55.7674 386.592C49.0395 388.424 42.1078 389.313 35.2614 388.285C28.5955 387.284 23.4328 383.441 19.2709 378.742C14.8784 373.781 11.757 368.003 10.0822 361.806C8.1763 354.756 8.05199 347.475 8.09659 340.252C8.14416 332.564 8.45503 324.834 9.47739 317.196C8.35729 316.955 7.11529 316.748 5.98348 316.819C5.42287 317.64 4.33547 317.985 3.35287 317.878C1.21616 320.035 6.63588 322.239 8.36788 322.79C8.96937 322.982 8.90489 323.876 8.21124 323.848L7.77438 323.83C5.09806 323.699 2.3331 323.281 0.759602 321.005C-0.501352 319.181 -0.122653 317.021 1.38061 315.532C2.37343 306.945 4.74687 298.579 6.95586 290.201C9.1236 281.978 11.5344 273.807 14.0897 265.676L15.2351 262.038C19.2584 249.291 23.4637 236.441 29.0133 224.199C31.7844 218.087 34.9769 212.088 39.3042 206.758C43.3377 201.79 48.1 197.538 53.574 193.908C63.7789 187.138 75.7533 183.048 87.5187 179.151L88.0453 178.977C94.1423 176.96 100.224 174.917 106.252 172.73C111.583 170.797 116.69 168.345 121.996 166.384C121.823 166.096 121.656 165.807 121.496 165.513L121.397 165.59C121.381 165.602 121.364 165.614 121.347 165.626C120.812 165.964 120.027 165.797 119.588 165.417C118.346 164.346 118.766 163.156 119.595 162.045L119.703 161.902C120.717 160.603 121.62 159.23 122.557 157.884L123.142 157.041C124.712 154.793 126.362 152.529 128.457 150.67C129.427 149.808 130.488 149.164 131.612 148.683C131.515 148.498 132.359 148.117 132.598 148.309C136.162 147.114 140.262 147.366 144.147 147.694M284.147 343.441L279.191 343.956C273.741 344.523 268.289 345.072 262.836 345.616L250.992 346.794C250.96 347.411 250.878 348.016 250.864 348.482C250.787 350.886 250.73 353.295 250.674 355.7C250.564 360.523 250.685 365.351 251.033 370.166C251.369 374.83 251.811 379.495 252.501 384.128L252.64 385.054L252.722 385.542C253.285 385.591 253.837 385.836 254.296 386.337C255.297 387.432 258.924 386.368 260.342 385.907C262.672 385.148 264.865 383.866 266.89 382.581C268.867 381.327 270.647 379.864 272.359 378.322L273.758 377.054C275.15 375.788 276.543 374.441 277.396 372.848C278.554 370.688 278.703 368.037 279.043 365.684C279.461 362.792 279.957 359.899 280.483 357.02M140.327 313.073L139.812 313.196C121.145 317.735 102.505 322.407 83.781 326.746C74.5148 328.893 65.2045 330.884 55.9268 332.99L54.4249 333.334C47.1057 335.026 39.6989 337.062 34.0941 341.921C33.8872 342.1 33.5868 341.824 33.7815 341.634C39.8221 335.75 48.4131 333.26 56.6617 331.1C58.1865 330.703 59.7132 330.312 61.2384 329.916C50.0203 326.257 38.625 323.073 26.9669 320.803C23.965 320.218 20.928 319.788 17.9284 319.202C15.8364 318.792 13.7934 318.199 11.7236 317.708L10.0954 317.334L10.0737 322.042C10.0467 328.711 10.0596 335.373 10.4314 342.042L10.5018 343.276C10.9357 350.696 11.6128 358.271 14.4905 365.266C16.8292 370.953 20.5565 376.308 25.4313 380.45C27.8976 382.546 30.5496 384.176 33.8274 384.981C36.8711 385.729 40.0599 385.817 43.1887 385.617C58.1964 384.66 71.5555 377.201 84.5921 371.024C105.915 360.922 127.241 350.825 148.586 340.762C148.008 340.402 147.466 339.986 146.971 339.518C144.11 336.812 142.599 333.111 141.607 329.525C140.551 325.708 139.921 321.617 139.847 317.676M167.486 344.661C167.673 344.569 167.893 344.685 167.9 344.88C167.967 346.371 167.066 347.843 166.393 349.187L166.322 349.33C165.503 350.994 164.609 352.637 163.682 354.253C161.831 357.482 159.908 360.678 157.899 363.827C153.863 370.164 149.376 376.234 144.074 381.752C142.876 382.998 140.906 381.4 141.676 380.058C145.381 373.589 149.701 367.481 154.148 361.425C156.374 358.393 158.598 355.36 160.846 352.341C161.785 351.082 162.734 349.828 163.71 348.59L164.299 347.853M388.877 222.506C370.145 223.024 351.435 224.141 332.792 225.893C315.453 227.523 298.178 229.692 281.001 232.394C277.413 232.958 273.831 233.546 270.252 234.158L268.104 234.527C264.525 235.147 260.152 235.404 256.966 237.153C253.606 238.998 252.698 242.853 251.579 246.031C250.265 249.77 248.983 253.519 247.738 257.277C242.788 272.201 238.267 287.252 234.233 302.403C232.232 309.924 230.455 317.485 228.584 325.033C226.921 331.739 225.085 338.371 223.169 345.009C223.405 344.841 223.695 344.714 224.045 344.646C233.564 342.793 243.28 341.988 252.941 340.963L253.876 340.863C263.871 339.788 273.866 338.721 283.865 337.691L350.077 330.879C353.981 330.477 358.164 330.422 361.964 329.464C368.424 327.834 369.939 321.224 371.024 315.961L371.056 315.801C374.324 299.898 376.925 283.858 379.975 267.915M224.71 326.523C222.138 326.367 218.621 324.214 216.669 324.368C217.693 325.94 218.156 327.734 217.565 329.647C215.924 334.975 208.497 332.219 204.92 330.59C201.988 329.256 199.156 327.621 195.908 326.996C192.231 326.289 189.739 327.628 186.63 329.17C184.079 330.438 181.299 331.347 178.439 331.818C176.919 332.069 175.476 332.095 174.034 331.998C173.948 332.062 173.85 332.122 173.738 332.176L172.976 332.542C176.423 332.686 179.935 333.66 183.143 334.55C186.467 335.473 189.73 336.586 192.976 337.725L196.17 338.847C204.047 341.607 212.201 344.229 220.726 344.206C221.339 344.204 221.841 344.359 222.237 344.612M210.328 309.829C212.866 309.545 215.211 309.849 217.24 311.362C219.687 313.187 221.332 316.212 224.849 316.411C225.875 316.469 226.115 317.788 225.094 318.063C222.474 318.774 220.354 317.477 218.57 315.794L217.372 314.647C215.608 312.976 213.983 311.685 210.989 311.785C207.786 311.892 204.576 312.568 201.393 312.913C197.787 313.304 194.182 313.636 190.564 313.923C190.395 313.937 190.367 313.695 190.525 313.66L194.576 312.737M207.877 300.33L208.295 300.293C211.983 299.965 215.356 299.951 218.648 301.766L219.28 302.116C222.25 303.768 225.483 305.712 227.339 308.386C227.642 308.824 227.14 309.339 226.633 309.227C223.063 308.444 220.455 306.049 217.454 304.256C214.085 302.244 210.606 302.575 206.765 302.888C203.047 303.19 199.331 303.607 195.648 304.173C192.188 304.706 188.717 305.546 185.224 305.814V305.808C184.824 305.808 184.597 305.259 185.004 305.072C188.55 303.452 192.658 302.686 196.516 301.945M319.902 266.98C319.545 265.42 321.643 264.697 322.615 265.935L322.821 266.195C324.921 268.827 327.959 272.131 327.803 275.479C329.65 275.515 331.564 276.541 332.283 278.066C332.616 278.771 332.727 279.606 332.655 280.471C334.332 280.591 336.163 281.599 337.189 282.58C338.889 284.206 339.023 286.506 337.802 288.406C335.143 292.549 329.334 294.057 324.428 294.393L324.254 294.405C319.188 294.727 311.89 294.64 308.415 290.663C305.064 286.827 308.768 283.722 312.566 282.034C311.577 281.208 311.064 280.026 311.546 278.776C312.391 276.581 315.375 275.732 317.061 274.206C319.118 272.347 320.474 269.794 319.934 267.126M322.686 270.353C322.128 272.575 320.755 274.606 318.845 276.217C318.113 276.832 317.314 277.379 316.464 277.852L316.362 277.904C315.608 278.292 313.755 279.018 313.896 279.888C314.043 280.78 317.063 282.177 317.886 282.179C318.074 282.179 318.179 282.446 317.988 282.524C316.496 283.125 315.193 283.384 313.737 282.748C312.761 283.657 311.815 284.599 310.877 285.534C309.219 287.186 309.786 288.929 311.746 290.16C314.894 292.137 319.677 292.087 323.351 291.944C327.047 291.8 330.999 291.045 333.885 288.792L334.011 288.692C335.581 287.415 337.014 285.252 334.611 284.021C333.669 283.54 332.653 283.567 331.759 283.335C330.923 284.834 329.566 286.035 327.913 286.266C326.575 286.453 325.653 284.915 326.87 284.179L327.143 284.025C328.671 283.132 329.975 281.757 329.94 279.968C329.917 278.725 328.02 277.157 326.785 278.324L326.729 278.379C325.696 279.446 323.875 278.102 324.555 276.92L324.586 276.868M81.6006 208.578C81.5959 208.311 82.006 208.211 82.1495 208.442C84.5488 212.305 85.803 217.04 87.0813 221.296C88.4201 225.752 89.5008 230.256 90.4715 234.792C92.438 243.976 93.4858 253.11 93.5568 262.471C93.5666 263.807 91.1869 264.164 90.9541 262.794C89.4084 253.688 87.9277 244.571 86.3703 235.468C85.5867 230.89 84.6747 226.328 83.8021 221.763M105.355 215.307C105.178 214.773 106.025 214.595 106.242 215.082C111.057 225.898 112.688 238.154 109.596 249.565C109.123 251.31 106.329 250.554 106.686 248.83M167.467 205.696C167.441 205.298 168.008 205.235 168.221 205.509C170.501 208.451 171.449 212.39 175.452 213.91C177.451 214.669 179.699 214.537 181.465 215.818C182.646 216.677 183.551 218.029 182.665 219.328C182.379 219.748 181.58 219.958 181.191 219.503C180.625 218.838 180.326 218.043 179.556 217.545C178.471 216.843 177.009 216.799 175.766 216.469C174.156 216.043 172.739 215.295 171.577 214.187M205.584 156.635C205.82 156.526 206.044 156.596 206.195 156.781C206.41 157.046 206.384 157.305 206.121 157.486C206.472 158.144 206.886 159.789 206.946 160.029C207.187 161.001 207.442 161.966 207.709 162.93C208.248 164.876 208.722 166.837 209.261 168.783C209.833 170.847 210.515 172.888 211.273 174.9C211.324 175.031 211.377 175.163 211.433 175.298L211.52 175.502L211.541 175.471C211.695 175.248 212.017 175.405 211.979 175.639C211.942 175.855 211.896 176.068 211.855 176.283L211.935 176.475C212.431 177.697 212.771 178.986 211.861 180.065C211.52 180.468 211.145 180.706 210.679 180.777C209.928 183.037 208.99 185.254 207.983 187.383L207.689 188.005C206.208 191.112 204.63 194.18 202.272 196.824C199.701 199.712 196.161 201.685 193.92 204.849C192.877 206.321 192.151 207.868 191.564 209.53L191.341 210.162C190.923 211.338 190.441 212.477 189.235 213.167C188.851 213.386 188.275 213.317 187.964 213.017C185.493 210.624 188.08 206.156 189.572 203.84C191.644 200.619 194.641 198.558 197.644 196.127C200.881 193.508 202.945 190.004 204.943 186.552C206.165 184.436 207.347 182.276 208.59 180.152C207.291 179.101 206.875 177.014 206.435 175.565L206.396 175.434C205.667 173.112 205.089 170.729 204.725 168.335C204.374 166.033 204.227 163.766 204.32 161.451L204.346 160.862M210.413 167.589C210.127 167.228 210.603 166.82 210.995 166.895C213.39 167.349 215.729 168.675 217.879 169.747L218.108 169.861C219.823 170.707 221.549 171.744 222.45 173.387C223.429 175.174 223.348 177.232 223.214 179.174L223.203 179.356C223.037 181.685 223.011 184.105 222.473 186.391C222.198 187.562 221.04 187.891 220.049 187.614C218.87 191.019 215.56 193.527 213.141 196.214C210.058 199.64 210.638 204.265 210.961 208.39C211.091 210.06 208.821 210.534 207.652 209.644L204.956 207.596C204.508 207.254 204.058 206.911 203.612 206.568C203.229 206.272 202.85 205.976 202.473 205.675L201.912 205.22C201.663 205.016 200.563 203.893 200.241 203.847C199.463 203.733 197.612 205.611 196.978 206.199L196.899 206.274C195.707 207.343 194.63 208.493 193.626 209.714C193.442 209.938 193.082 209.751 193.214 209.493C194.113 207.73 195.157 206.046 196.399 204.47L196.65 204.156C197.475 203.138 198.582 201.342 200.041 201.041C201.819 200.674 203.595 202.307 204.891 203.213L204.972 203.269C205.589 203.692 206.197 204.122 206.804 204.555C206.741 201.484 207.165 198.381 208.899 195.733C210.121 193.867 211.952 192.484 213.518 190.879C215.263 189.093 216.173 186.899 217.753 185.038C217.955 184.798 218.236 184.669 218.539 184.628C218.6 183.133 218.842 181.623 219.027 180.143L219.081 179.701C219.269 178.093 219.713 176.13 218.853 174.625C218.041 173.202 216.177 172.199 214.796 171.234L213.669 170.434M132.717 150.591C131.998 150.972 131.324 151.448 130.712 152.039C128.789 153.907 127.412 156.232 126.074 158.467C125.353 159.672 124.658 160.889 123.932 162.09C123.616 162.612 123.291 163.129 122.962 163.646C122.81 163.884 122.358 164.356 122.135 164.647C122.384 164.966 122.64 165.281 122.902 165.59C123.003 165.709 129.904 172.589 132.31 175.281C135.995 179.404 139.288 183.76 142.103 188.423C144.859 192.988 146.958 197.823 149.511 202.477C150.79 204.807 152.217 207.12 154.036 209.137C154.107 209.216 154.181 209.29 154.254 209.369C154.947 207.652 156.727 205.813 157.6 204.758L157.682 204.659C159.665 202.213 161.759 199.843 163.896 197.512C165.85 195.383 167.853 193.301 169.905 191.253L170.676 190.487C172.105 189.074 173.92 186.96 176.013 185.95C175.79 185.585 175.53 185.223 175.232 184.866C173.272 182.522 170.5 180.821 167.764 179.287L165.992 178.299C159.308 174.572 152.726 170.672 146.923 165.828C143.853 163.267 140.825 160.581 138.244 157.593L137.331 156.536M143.872 148.746C140.741 148.987 137.361 148.929 134.468 149.862C137.039 152.087 139.485 154.488 141.995 156.751C142.218 155.221 142.675 153.71 143.064 152.218" fill="black"/>
<path fill-rule="evenodd" clip-rule="evenodd" d="M175.884 7.27754C198.175 7.27754 221.231 23.0867 229.402 33.1749C236.271 41.6567 239.971 80.0104 239.971 105.931C239.971 111.351 243.239 121.57 242.286 126.755C238.789 145.756 223.558 161.693 193.409 161.693C163.26 161.693 141.642 150.758 119.234 121.4C108.361 121.4 103.092 113.771 103.015 101.731C102.939 89.6915 113.51 85.3104 113.51 85.3104C113.51 85.3104 109.741 37.7956 119.234 25.4251C128.728 13.0545 153.596 7.27754 175.884 7.27754Z" fill="white"/>
<path fill-rule="evenodd" clip-rule="evenodd" d="M166.506 0.559053C180.58 -0.74484 194.371 0.35069 208.241 2.61755C209.3 2.79328 209.902 3.42941 210.125 4.19404C216.658 4.46716 223.197 4.90565 229.721 5.23264C232.089 5.3511 233.432 7.49151 232.352 9.4244C232.137 9.80833 231.912 10.1819 231.685 10.5556L231.971 10.4693C233.934 9.89314 236.054 9.60914 237.966 10.5235C240.4 11.6873 241.353 14.2554 240.816 16.6188C240.679 17.2223 240.447 17.8006 240.185 18.3649C240.718 18.3326 241.257 18.3433 241.79 18.408C244.631 18.7529 246.744 20.7464 246.893 23.401C247.114 27.4092 244.291 31.4757 240.965 34.3454C241.448 35.2545 241.632 36.3248 241.431 37.4097C241.032 39.5542 239.306 40.8382 237.304 41.6759C238.139 44.1008 238.533 46.6362 238.3 49.227C238.222 50.092 237.395 50.8063 236.524 50.9817C239.776 59.1764 241.422 67.9747 242.606 76.5477C243.451 82.6474 243.867 88.7822 243.918 94.9278C243.942 97.7032 243.892 100.48 243.765 103.256L243.713 104.296C243.557 107.295 243.548 110.445 242.959 113.412C244.969 116.541 245.778 120.424 246.12 123.931C246.543 128.27 245.872 132.744 244.377 136.873C238.732 152.468 221.694 162.31 204.582 164.868C188.741 167.235 170.412 164.048 161.157 150.884C161.01 150.676 161.32 150.503 161.5 150.641C168.125 155.568 175.806 157.767 184.153 158.838C198.584 160.683 214.804 157.551 226.386 149.247C231.944 145.26 235.952 139.454 237.715 133.208C238.614 130.015 238.925 126.686 238.57 123.399C238.209 120.066 236.596 117.221 235.58 114.07C235.238 113.006 235.599 112.018 236.31 111.315C236.509 108.757 236.981 106.179 237.161 103.628C237.362 100.728 237.483 97.8306 237.527 94.9278C237.609 88.908 237.334 82.8768 236.78 76.8822C235.768 65.9046 233.079 55.1937 231.501 44.3095C230.916 44.7891 230.078 44.9859 229.201 44.567L229.11 44.5214L228.63 44.2704C228.603 44.2704 228.573 44.274 228.545 44.2772C225.267 44.5685 221.867 44.1519 218.726 43.2571C215.439 42.3236 212.39 40.8868 209.666 38.9722C209.148 41.3749 208.932 43.803 208.928 46.2528C208.925 47.783 207.154 48.5772 205.747 47.9234C199.519 45.0279 193.567 41.6913 187.918 37.9413C187.258 41.0339 186.599 44.1264 185.935 47.2227C185.679 48.4156 184.02 48.8969 182.955 48.3294C178.724 46.0768 175.069 43.1281 172.092 39.622C171.499 40.6616 170.903 41.7009 170.303 42.7379L169.399 44.2916C168.509 45.8182 167.315 47.5068 165.364 47.9949C163.299 48.5121 161.575 47.2876 160.882 45.5775C160.67 45.0462 160.473 44.5 160.293 43.9504C158.533 47.6253 156.547 51.2173 154.302 54.6441C150.933 59.7839 146.89 64.3636 142.857 69.062C141.633 70.4885 139.537 69.1266 139.368 67.7405C139.269 66.9252 139.188 66.1062 139.117 65.2904C136.768 69.6282 134.315 73.9253 131.645 78.0977L132.028 79.4687C133.13 83.5197 134.044 87.5993 135.04 91.6715C135.362 92.9869 134.598 94.8649 132.92 95.0892C130.915 95.3561 129.02 96.2925 126.966 95.6484C124.727 94.9448 124.285 93.1739 123.228 91.4964C123.016 91.1616 122.771 90.854 122.507 90.5634L122.44 90.6432C122.276 90.8404 121.882 90.6245 121.981 90.3985L122.096 90.1368C121.187 89.2547 120.101 88.5205 119.102 87.7285C116.728 87.3631 114.057 87.7642 112.422 88.6463C108.696 90.6568 106.985 94.802 106.95 98.6141C106.906 103.075 108.418 108.089 110.969 111.905C112.092 113.582 113.631 115.096 115.664 115.841C117.683 116.58 119.869 116.351 121.921 117.047C123.28 117.511 124.116 118.891 123.296 120.141C123.241 120.227 123.179 120.305 123.12 120.389L123.729 121.13C124.149 121.643 124.588 122.194 124.997 122.766C126.041 123.866 127.139 124.925 128.204 126.006C130.17 127.999 132.078 130.047 134.012 132.07C135.839 133.977 137.77 135.77 139.76 137.532C141.64 139.203 143.989 140.608 145.715 142.389C147.395 144.128 147.852 147.163 145.087 148.17C142.03 149.284 139.323 146.671 137.264 144.927L137.177 144.854C133.405 141.676 129.997 138.045 127.291 134.048C124.61 135.717 120.734 135.877 118.064 134.208C116.659 133.329 115.582 131.854 115.058 130.248C114.564 130.35 114.071 130.408 113.59 130.401C113.342 130.533 113.093 130.661 112.842 130.78C110.851 131.728 108.406 131.305 107.495 129.289C106.666 127.459 107.521 125.382 108.268 123.618L108.422 123.254C108.846 122.25 109.313 121.154 109.894 120.122C108.276 119.009 106.894 117.625 105.725 116.053C101.795 110.754 99.8322 103.006 100.7 96.6851C101.222 92.8696 103.18 88.9182 106.388 86.3468L106.27 86.0663C105.371 83.98 104.555 81.8855 104.025 79.6803C103.405 77.1012 103.102 74.4289 102.828 71.8031C102.247 66.2571 102.404 60.5852 103.177 55.0608C104.629 44.662 108.312 34.4535 114.848 25.8004C112.995 23.7705 111.527 21.3819 112.292 18.6343C112.642 17.3732 113.438 16.1774 114.64 15.4551C115.303 15.0567 116.092 14.9957 116.756 14.6651L116.955 14.5647C117.247 14.409 117.024 14.4255 116.85 13.7025C116.163 10.8141 116.732 8.02346 120.207 7.06441C123.477 6.16297 126.571 8.07734 128.505 10.3583C133.57 7.07138 140.243 5.3511 146.113 3.88915C152.786 2.23294 159.633 1.19876 166.506 0.559053ZM111.805 97.4346C111.781 95.0825 114.219 93.631 116.618 94.0168C118.229 94.2735 119.573 95.1521 120.834 96.0614L121.449 96.5067C122.986 97.6114 124.751 98.8011 125.666 100.363C127.009 102.669 124.172 105.773 121.522 104.156C119.704 103.041 118.539 101.255 117.346 99.5964L117.223 99.4248C116.681 98.6821 116.206 97.8918 115.464 97.2953L115.303 97.1661C115.059 96.9757 114.797 96.8024 114.482 96.7208C113.874 96.5611 112.749 96.7854 112.48 97.4465L112.456 97.5145C112.358 97.8493 111.809 97.7762 111.805 97.4346Z" fill="black"/>
<path fill-rule="evenodd" clip-rule="evenodd" d="M213.505 130.001C210.84 130.96 207.693 131.186 204.943 130.368C202.313 129.588 199.925 127.85 198.482 125.664C197.194 123.718 196.657 121.407 197.417 119.104C197.454 118.993 197.571 118.924 197.686 118.895C198.307 119.413 198.692 119.928 199.076 120.441C199.725 121.305 200.373 122.16 201.263 122.897C202.56 123.971 204.307 124.845 206.039 125.132C207.735 125.414 209.473 125.164 210.993 124.422C211.916 123.97 212.663 123.366 213.403 122.76C214.209 122.098 215.003 121.429 216.112 121.055C217 120.756 217.935 121.009 218.652 121.509C219.423 122.046 219.977 122.887 219.947 123.767C219.899 125.13 219.247 126.267 218.301 127.204C217.023 128.473 215.215 129.386 213.505 130.001ZM210.342 96.0393C213.308 97.6879 217.823 101.532 214.635 105.62C210.881 109.223 205.476 105.091 202.813 103.222C200.344 101.774 197.569 105.499 199.86 107.19C219.106 120.227 226.915 96.4693 211.842 94.1001C210.183 93.8384 209.566 95.5278 210.342 96.0393ZM179.162 73.1938C183.202 73.0171 186.764 74.6774 190.614 75.4316C194.173 76.1293 197.677 75.7103 201.139 74.8232C206.754 73.3831 209.075 81.2497 203.536 82.7827C199.502 83.8991 195.254 83.9766 191.114 83.4013C187.439 82.8897 184.356 81.2517 180.85 80.2981C177.841 79.4801 174.301 79.82 171.124 80.2051L169.89 80.3571C168.056 80.5829 166.213 80.8097 164.397 81.1375C162.823 81.4224 161.251 81.9436 159.644 82.0039C159.46 82.0111 159.306 81.7942 159.421 81.6494C161.289 79.3037 164.888 77.4527 167.751 76.2182L167.945 76.1349C171.479 74.6274 175.227 73.3655 179.162 73.1938ZM177.681 90.492V90.4104C177.687 88.1194 179.144 82.8901 182.749 82.8901C184.999 82.8901 186.366 86.4488 186.602 90.1181L186.612 90.2676C186.716 92.5484 186.032 97.5349 182.749 97.5349C179.43 97.5349 177.715 92.8119 177.681 90.492ZM230.74 90.492V90.4104C230.734 88.1194 229.277 82.8901 225.672 82.8901C223.478 82.8901 222.123 86.2737 221.837 89.8428L221.818 90.1181C221.675 92.3224 222.316 97.5349 225.672 97.5349C228.991 97.5349 230.706 92.8119 230.74 90.492ZM230.684 70.404L230.942 70.4093C235.155 70.5429 239.486 72.8255 240.61 76.66C240.668 76.8591 240.4 76.993 240.24 76.8565C236.779 73.89 232.122 76.7246 228.653 78.2104L227.38 78.7488C222.909 80.6516 217.825 82.8889 212.862 81.4708C210.504 80.7973 209.006 78.5811 209.679 76.3424C210.277 74.3507 212.905 72.6768 215.181 73.3957L215.285 73.4301C217.134 74.0773 219.407 73.4216 221.317 72.7751L222.885 72.2361C225.408 71.3604 227.941 70.3804 230.684 70.404Z" fill="black"/>
</svg>
